<?xml version="1.0" encoding="utf-8"?>
<!-- Generator: Adobe Illustrator 28.0.0, SVG Export Plug-In . SVG Version: 6.00 Build 0)  -->
<svg version="1.1" id="Layer_1" xmlns="http://www.w3.org/2000/svg" xmlns:xlink="http://www.w3.org/1999/xlink" x="0px" y="0px"
	 viewBox="0 0 80 80" style="enable-background:new 0 0 80 80;" xml:space="preserve">
<style type="text/css">
	.st0{fill:#C7FF20;}
	.st1{fill:#BEEA1F;}
	.st2{fill:#FFFFFF;}
</style>
<g>
	<circle class="st0" cx="40" cy="40" r="40"/>
	<path class="st1" d="M48.5,79.2c0.8-0.2,1.5-0.3,2.3-0.5c1.3-0.4,2.6-0.8,3.8-1.3c1.2-0.5,2.5-1,3.7-1.6c4.8-2.4,9-5.8,12.5-9.9
		c3.5-4.1,6-8.8,7.6-14c0.3-1.1,0.6-2.2,0.9-3.4L55.4,24.7c-4.1-4.1-9.6-6.4-15.3-6.4c-5.8,0-11.3,2.3-15.3,6.4
		c-8.5,8.5-8.5,22.2,0,30.7L48.5,79.2z"/>
	<path class="st2" d="M40,18.3c5.7,0,11.3,2.3,15.3,6.4c8.5,8.5,8.5,22.2,0,30.6c-8.5,8.5-22.2,8.5-30.6,0c-8.5-8.5-8.5-22.2,0-30.6
		C28.7,20.6,34.3,18.3,40,18.3L40,18.3z M49.9,33.3c-0.3,0-0.6,0.2-0.9,0.3l-12.2,9.1l-5.6-5.6c-1.2-1.3-3.6,1.1-2.4,2.4l6.7,6.7
		c0.6,0.6,1.5,0.6,2.2,0.2l13.3-10c1.1-0.8,0.4-3-1-3C50,33.3,49.9,33.3,49.9,33.3L49.9,33.3z"/>
</g>
</svg>
