<?xml version="1.0" encoding="UTF-8"?>
<svg id="Layer_1" data-name="Layer 1" xmlns="http://www.w3.org/2000/svg" viewBox="0 0 80 80">
  <defs>
    <style>
      .cls-1, .cls-2, .cls-3 {
        stroke-width: 0px;
      }

      .cls-2 {
        fill: #151905;
      }

      .cls-3 {
        fill: #fff;
      }
    </style>
  </defs>
  <circle class="cls-2" cx="40" cy="40" r="40"/>
  <path class="cls-1" d="m48.5,79.2c.8-.2,1.5-.3,2.3-.5,1.3-.4,2.6-.8,3.8-1.3s2.5-1,3.7-1.6c4.8-2.4,9-5.8,12.5-9.9s6-8.8,7.6-14c.3-1.1.6-2.2.9-3.4l-23.9-23.8c-4.1-4.1-9.6-6.4-15.3-6.4s-11.3,2.3-15.3,6.4c-8.5,8.5-8.5,22.2,0,30.7l23.7,23.8Z"/>
  <path class="cls-3" d="m40,18.3c5.7,0,11.3,2.3,15.3,6.4,8.5,8.5,8.5,22.2,0,30.6-8.5,8.5-22.2,8.5-30.6,0-8.5-8.5-8.5-22.2,0-30.6,4-4.1,9.6-6.4,15.3-6.4h0Zm9.9,15c-.3,0-.6.2-.9.3l-12.2,9.1-5.6-5.6c-1.2-1.3-3.6,1.1-2.4,2.4l6.7,6.7c.6.6,1.5.6,2.2.2l13.3-10c1.1-.8.4-3-1-3,0-.1-.1-.1-.1-.1h0Z"/>
</svg>